<?xml version="1.0" encoding="utf-8"?>
<!-- Generator: Adobe Illustrator 18.1.1, SVG Export Plug-In . SVG Version: 6.00 Build 0)  -->
<!DOCTYPE svg PUBLIC "-//W3C//DTD SVG 1.1//EN" "http://www.w3.org/Graphics/SVG/1.1/DTD/svg11.dtd">
<svg version="1.1" xmlns="http://www.w3.org/2000/svg" xmlns:xlink="http://www.w3.org/1999/xlink" x="0px" y="0px"
	 viewBox="0 0 20 100" enable-background="new 0 0 20 100" xml:space="preserve">
<g id="warning">
	<g>
		<path fill="#B71C1C" d="M11,23.5L17.8,36c0.2,0.4,0.2,0.7,0,1.1c-0.1,0.2-0.2,0.3-0.4,0.4c-0.2,0.1-0.4,0.2-0.6,0.2H3.2
			c-0.2,0-0.4-0.1-0.6-0.2c-0.2-0.1-0.3-0.2-0.4-0.4c-0.2-0.4-0.2-0.7,0-1.1L9,23.5c0.1-0.2,0.2-0.3,0.4-0.4
			c0.2-0.1,0.4-0.2,0.6-0.2c0.2,0,0.4,0.1,0.6,0.2C10.8,23.2,10.9,23.3,11,23.5z M11.1,31.8l0.2-4.1c0-0.1,0-0.1-0.1-0.2
			c-0.1-0.1-0.1-0.1-0.2-0.1H9c-0.1,0-0.1,0-0.2,0.1c-0.1,0-0.1,0.1-0.1,0.2l0.2,4.1c0,0.1,0,0.1,0.1,0.1C9,32,9.1,32,9.2,32h1.7
			c0.1,0,0.2,0,0.2-0.1C11.1,31.9,11.1,31.9,11.1,31.8z M11.1,35.2v-1.7c0-0.1,0-0.2-0.1-0.2c-0.1-0.1-0.1-0.1-0.2-0.1H9.1
			c-0.1,0-0.1,0-0.2,0.1c-0.1,0.1-0.1,0.1-0.1,0.2v1.7c0,0.1,0,0.2,0.1,0.2c0.1,0.1,0.1,0.1,0.2,0.1h1.7c0.1,0,0.1,0,0.2-0.1
			C11.1,35.3,11.1,35.2,11.1,35.2z"/>
	</g>
</g>
<g id="tick">
	<g>
		<path fill="#4CAF50" d="M16.9,6.9c0,0.2-0.1,0.4-0.2,0.6L10.2,14L9,15.2c-0.2,0.2-0.4,0.2-0.6,0.2s-0.4-0.1-0.6-0.2L6.6,14
			l-3.2-3.2c-0.2-0.2-0.2-0.4-0.2-0.6c0-0.2,0.1-0.4,0.2-0.6l1.2-1.2c0.2-0.2,0.4-0.2,0.6-0.2c0.2,0,0.4,0.1,0.6,0.2l2.6,2.6
			l5.9-5.9c0.2-0.2,0.4-0.2,0.6-0.2c0.2,0,0.4,0.1,0.6,0.2l1.2,1.2C16.8,6.5,16.9,6.7,16.9,6.9z"/>
	</g>
</g>
</svg>
