<?xml version="1.0" encoding="utf-8"?>
<!-- Generator: Adobe Illustrator 18.1.1, SVG Export Plug-In . SVG Version: 6.00 Build 0)  -->
<!DOCTYPE svg PUBLIC "-//W3C//DTD SVG 1.1//EN" "http://www.w3.org/Graphics/SVG/1.1/DTD/svg11.dtd">
<svg version="1.1" xmlns="http://www.w3.org/2000/svg" xmlns:xlink="http://www.w3.org/1999/xlink" x="0px" y="0px"
	 viewBox="0 0 20 100" enable-background="new 0 0 20 100" xml:space="preserve">
<g id="refresh">
	<g>
		<path fill="#FFFFFF" d="M16.8,51.6C16.8,51.6,16.8,51.6,16.8,51.6c-0.4,1.7-1.2,3-2.5,4c-1.2,1-2.7,1.5-4.4,1.5
			c-0.9,0-1.7-0.2-2.6-0.5c-0.8-0.3-1.6-0.8-2.2-1.4L4,56.4c-0.1,0.1-0.3,0.2-0.4,0.2s-0.3-0.1-0.4-0.2C3.1,56.3,3,56.1,3,56v-4.1
			c0-0.2,0.1-0.3,0.2-0.4c0.1-0.1,0.3-0.2,0.4-0.2h4.1c0.2,0,0.3,0.1,0.4,0.2c0.1,0.1,0.2,0.3,0.2,0.4c0,0.2-0.1,0.3-0.2,0.4
			l-1.2,1.2c0.4,0.4,0.9,0.7,1.5,0.9c0.5,0.2,1.1,0.3,1.7,0.3c0.8,0,1.6-0.2,2.3-0.6c0.7-0.4,1.3-0.9,1.7-1.6
			c0.1-0.1,0.2-0.5,0.5-1.1c0-0.1,0.1-0.2,0.3-0.2h1.8c0.1,0,0.1,0,0.2,0.1C16.7,51.4,16.8,51.5,16.8,51.6z M17,44.3v4.1
			c0,0.2-0.1,0.3-0.2,0.4c-0.1,0.1-0.3,0.2-0.4,0.2h-4.1c-0.2,0-0.3-0.1-0.4-0.2c-0.1-0.1-0.2-0.3-0.2-0.4c0-0.2,0.1-0.3,0.2-0.4
			l1.3-1.3c-0.9-0.8-2-1.2-3.2-1.2c-0.8,0-1.6,0.2-2.3,0.6C7,46.5,6.5,47,6,47.7c-0.1,0.1-0.2,0.5-0.5,1.1c0,0.1-0.1,0.2-0.3,0.2
			H3.5c-0.1,0-0.1,0-0.2-0.1c-0.1-0.1-0.1-0.1-0.1-0.2v-0.1c0.4-1.6,1.2-2.9,2.5-4c1.2-1,2.7-1.5,4.4-1.5c0.9,0,1.8,0.2,2.6,0.5
			s1.6,0.8,2.2,1.4l1.2-1.2c0.1-0.1,0.3-0.2,0.4-0.2c0.2,0,0.3,0.1,0.4,0.2C16.9,44,17,44.1,17,44.3z"/>
	</g>
</g>
<g id="warning">
	<g>
		<path fill="#B71C1C" d="M10.7,25.1l5.1,9.4c0.2,0.3,0.2,0.6,0,0.8c-0.1,0.1-0.2,0.2-0.3,0.3c-0.1,0.1-0.3,0.1-0.4,0.1H4.9
			c-0.2,0-0.3,0-0.4-0.1s-0.2-0.2-0.3-0.3c-0.2-0.3-0.2-0.6,0-0.8l5.1-9.4c0.1-0.1,0.2-0.2,0.3-0.3c0.1-0.1,0.3-0.1,0.4-0.1
			s0.3,0,0.4,0.1C10.6,24.8,10.7,24.9,10.7,25.1z M10.8,31.3l0.1-3.1c0-0.1,0-0.1-0.1-0.1c-0.1,0-0.1-0.1-0.2-0.1H9.3
			c0,0-0.1,0-0.2,0.1c0,0-0.1,0.1-0.1,0.1l0.1,3.1c0,0,0,0.1,0.1,0.1c0,0,0.1,0,0.2,0h1.2c0.1,0,0.1,0,0.2,0
			C10.8,31.4,10.8,31.4,10.8,31.3z M10.9,33.8v-1.3c0-0.1,0-0.1-0.1-0.2c0,0-0.1-0.1-0.2-0.1H9.4c-0.1,0-0.1,0-0.2,0.1
			c0,0-0.1,0.1-0.1,0.2v1.3c0,0.1,0,0.1,0.1,0.2c0,0,0.1,0.1,0.2,0.1h1.3c0.1,0,0.1,0,0.2-0.1C10.8,33.9,10.9,33.9,10.9,33.8z"/>
	</g>
</g>
<g id="tick">
	<g>
		<path fill="#4CAF50" d="M15.2,7.4c0,0.2-0.1,0.3-0.2,0.5l-4.8,4.8l-0.9,0.9c-0.1,0.1-0.3,0.2-0.5,0.2s-0.3-0.1-0.5-0.2l-0.9-0.9
			L5,10.2C4.9,10.1,4.8,10,4.8,9.8S4.9,9.5,5,9.3l0.9-0.9C6,8.3,6.2,8.2,6.4,8.2c0.2,0,0.3,0.1,0.5,0.2l2,2L13.2,6
			c0.1-0.1,0.3-0.2,0.5-0.2c0.2,0,0.3,0.1,0.5,0.2L15,6.9C15.1,7,15.2,7.2,15.2,7.4z"/>
	</g>
</g>
</svg>
